<svg width="23" height="18" viewBox="0 0 23 18" fill="none" xmlns="http://www.w3.org/2000/svg">
<path d="M10.3912 11.8194H11.9758C12.1463 11.8194 12.2828 11.6856 12.289 11.5144L12.6239 1.8937C12.627 1.80656 12.5959 1.72563 12.537 1.66338C12.4781 1.60113 12.3975 1.56689 12.3107 1.56689H10.0656C9.97878 1.56689 9.89815 1.60113 9.83923 1.66338C9.78032 1.72563 9.74931 1.80656 9.75241 1.8937L10.0842 11.5144C10.0842 11.6856 10.2237 11.8194 10.3912 11.8194Z" fill="#FAC500"/>
<path d="M0.902344 15.0222C3.70247 15.9341 7.35225 16.4352 11.185 16.4352C15.0177 16.4352 18.6644 15.9341 21.4676 15.0222V14.6487H0.902344V15.0222Z" fill="#FAC500"/>
<path d="M21.6041 13.7459V11.8878C21.6041 10.6833 21.3994 9.50051 20.9963 8.37068C20.6056 7.27198 20.035 6.25108 19.3032 5.33913C17.8365 3.50588 15.7806 2.21109 13.5107 1.6913C13.4735 1.4423 13.3587 1.21509 13.182 1.03146C12.9494 0.791796 12.6393 0.657959 12.3044 0.657959H10.0594C9.72447 0.657959 9.41438 0.791796 9.18181 1.03146C9.00506 1.21509 8.89343 1.4423 8.85312 1.6913C6.58324 2.21109 4.52734 3.50588 3.0606 5.33913C2.33499 6.25108 1.76442 7.27198 1.37371 8.37068C0.970586 9.50051 0.765927 10.6833 0.765927 11.8878V13.7459C0.338 13.7802 0 14.1443 0 14.5832V15.075C0 15.4391 0.229468 15.7597 0.573669 15.8749C3.46993 16.8242 7.23754 17.3502 11.1881 17.3502C15.1387 17.3502 18.9063 16.8273 21.8025 15.8749C22.1467 15.7628 22.3762 15.4422 22.3762 15.075V14.5832C22.3731 14.1412 22.0351 13.7802 21.6041 13.7459ZM9.83611 1.66329C9.89502 1.60104 9.97565 1.5668 10.0625 1.5668H12.3075C12.3944 1.5668 12.475 1.60104 12.5339 1.66329C12.5928 1.72554 12.6238 1.80646 12.6207 1.89361L12.2889 11.5143C12.2827 11.6855 12.1463 11.8193 11.9757 11.8193H10.3912C10.2206 11.8193 10.0842 11.6855 10.078 11.5143L9.74928 1.89361C9.74618 1.80646 9.77719 1.72554 9.83611 1.66329ZM1.67139 11.8878C1.67139 10.1448 2.14893 8.43293 3.0513 6.93894C3.91646 5.51031 5.13512 4.3338 6.58324 3.52766L7.34297 8.8749C7.37398 9.09589 7.56624 9.26396 7.7895 9.26396C7.81121 9.26396 7.83291 9.26396 7.85462 9.26085C7.97556 9.24217 8.08099 9.17992 8.15231 9.08344C8.22363 8.98695 8.25464 8.86556 8.23913 8.74729L7.436 3.10748C7.89803 2.90828 8.37868 2.74643 8.86862 2.62193L9.17561 11.5454C9.19732 12.2084 9.73378 12.7281 10.3943 12.7281H11.9788C12.6393 12.7281 13.1758 12.2084 13.1975 11.5454L13.5045 2.62193C13.9944 2.74643 14.4751 2.90828 14.9371 3.10748L14.134 8.74729C14.0999 8.99629 14.2704 9.22661 14.5185 9.26085C14.5402 9.26396 14.5619 9.26396 14.5836 9.26396C14.8069 9.26396 14.9991 9.09589 15.0301 8.8749L15.7899 3.52766C17.238 4.3338 18.4567 5.51031 19.3218 6.93894C20.2242 8.43293 20.7017 10.1417 20.7017 11.8878V13.7428H1.67139V11.8878ZM21.4676 15.022C18.6675 15.934 15.0177 16.4351 11.185 16.4351C7.35227 16.4351 3.70559 15.934 0.902366 15.022V14.6485H21.4676V15.022Z" fill="#12100B"/>
</svg>
