<svg width="30" height="19" viewBox="0 0 30 19" fill="none" xmlns="http://www.w3.org/2000/svg">
<path d="M6.4248 2.47827L12.3115 6.52163L16.6986 3.97358L8.40566 1.48999L6.4248 2.47827Z" fill="#FFC742"/>
<path d="M27.6643 0.329774C25.7865 -0.254601 23.7842 -0.0612426 21.8592 0.901258L17.0166 3.47509L8.10489 1.00868C7.98458 0.974304 7.85567 0.987195 7.74396 1.04735L5.90919 2.00985C5.7545 2.09149 5.65567 2.25048 5.64278 2.42235C5.63419 2.59852 5.71583 2.7618 5.86193 2.86063L11.3318 6.49149L5.99083 9.32743L2.27833 6.54306C2.11075 6.41845 1.87872 6.40985 1.70685 6.52587L0.220129 7.51845C-0.00330885 7.66884 -0.0677619 7.96962 0.0783318 8.19735L3.24083 13.1345C3.52013 13.6114 4.03146 13.8993 4.56857 13.8735C6.39903 13.7962 8.17794 13.3708 9.84513 12.6102L14.0818 10.6809L12.8873 18.2563C12.8658 18.3981 12.9045 18.5442 12.999 18.6559C13.0936 18.7677 13.2311 18.8278 13.3772 18.8278H15.358C15.5471 18.8278 15.7233 18.7204 15.8049 18.5485L21.1158 7.47977L28.2744 4.22274C29.1553 3.82313 29.7268 3.07977 29.7268 2.32782C29.7311 1.71337 29.3701 0.862586 27.6643 0.329774ZM7.10802 2.4997L8.03185 2.01415L15.7447 4.1497L12.3244 5.96727L7.10802 2.4997ZM27.8662 3.32469L20.5443 6.65477C20.4369 6.70204 20.3553 6.78798 20.3037 6.8911L15.0486 17.8395H13.9572L15.2076 9.92899C15.2377 9.74852 15.1647 9.56806 15.0186 9.45634C14.8725 9.34462 14.6791 9.32313 14.5115 9.40048L9.43692 11.7122C7.88575 12.4212 6.23146 12.8165 4.5256 12.8895C4.35372 12.8981 4.18614 12.7993 4.08302 12.6231L1.17403 8.07274L1.96466 7.54423L5.64708 10.3071C5.80177 10.4231 6.00802 10.4403 6.1756 10.3501L22.3104 1.78212C23.9904 0.944226 25.735 0.768055 27.3635 1.27509C27.776 1.40399 28.7342 1.76493 28.7342 2.32782C28.7385 2.68016 28.3818 3.08837 27.8662 3.32469Z" fill="black"/>
</svg>
