<svg width="21" height="21" viewBox="0 0 21 21" fill="none" xmlns="http://www.w3.org/2000/svg">
<path d="M1.65979 7.25157C2.22024 7.25157 2.74683 7.53819 3.05169 8.00663L8.76402 6.42564C8.53614 6.13287 8.41297 5.77845 8.41297 5.40555C8.41297 5.13435 8.63469 4.91246 8.90567 4.91246C9.17666 4.91246 9.39838 5.13435 9.39838 5.40555C9.39838 5.77845 9.70017 6.08047 10.0728 6.08047C10.4454 6.08047 10.7472 5.77845 10.7472 5.40555C10.7472 5.03265 10.4454 4.73063 10.0728 4.73063C9.80179 4.73063 9.58007 4.50873 9.58007 4.23753L9.58007 3.32839L8.90567 3.32839C8.71783 3.32839 8.54846 3.22361 8.46532 3.05411L7.29514 0.714986C7.21815 0.560894 7.22739 0.382147 7.31669 0.234219C7.406 0.0893724 7.56613 -1.06158e-06 7.73549 -1.04729e-06L12.4131 -6.52738e-07C12.5825 -6.38452e-07 12.7426 0.0893728 12.8319 0.234219C12.9212 0.382148 12.9305 0.560895 12.8535 0.714987L11.6833 3.05411C11.6002 3.22361 11.4308 3.32839 11.243 3.32839L10.5686 3.32839L10.5686 3.8184C11.2614 4.03413 11.7387 4.67515 11.7387 5.40863C11.7387 5.78154 11.6156 6.13903 11.3877 6.42872L17.0969 8.00663C17.4018 7.53819 17.9284 7.25158 18.4888 7.25158C19.4065 7.25158 20.1517 7.99738 20.1517 8.91577L20.1517 19.6776C20.1517 19.9488 19.93 20.1707 19.659 20.1707L0.492685 20.1707C0.221695 20.1707 -2.27884e-05 19.9488 -2.27638e-05 19.6776L-2.17887e-05 8.91577C-0.00310017 7.99738 0.74212 7.25157 1.65979 7.25157ZM10.9381 2.33912L11.6125 0.986189L8.53307 0.986189L9.20746 2.33912L10.9381 2.33912ZM16.829 8.95892L10.0759 7.08824L3.32268 8.95892L3.32268 9.59377L16.826 9.59378C16.829 9.42119 16.829 9.10685 16.829 8.95892ZM2.33418 9.59069L2.33418 8.91577C2.33418 8.54287 2.0324 8.24085 1.65979 8.24085C1.28718 8.24085 0.985395 8.54287 0.985395 8.91577L0.985395 9.59069L2.33418 9.59069ZM19.1663 9.59069L19.1663 8.91577C19.1663 8.54287 18.8645 8.24085 18.4919 8.24085C18.1193 8.24085 17.8175 8.54287 17.8175 8.91577L17.8175 9.59069L19.1663 9.59069ZM0.985394 10.58L0.985394 19.1845L19.1663 19.1845L19.1663 10.58L0.985394 10.58Z" fill="white"/>
<path d="M14.9044 17.8315C14.6334 17.8315 14.4116 17.6096 14.4116 17.3384L14.4116 12.426C14.4116 12.1548 14.6334 11.9329 14.9044 11.9329C15.1753 11.9329 15.3971 12.1548 15.3971 12.426L15.3971 17.3384C15.4001 17.6096 15.1784 17.8315 14.9044 17.8315Z" fill="white"/>
<path d="M17.3217 17.8315C17.0508 17.8315 16.829 17.6096 16.829 17.3384L16.829 12.426C16.829 12.1548 17.0508 11.9329 17.3217 11.9329C17.5927 11.9329 17.8145 12.1548 17.8145 12.426L17.8145 17.3384C17.8145 17.6096 17.5927 17.8315 17.3217 17.8315Z" fill="white"/>
<path d="M2.82684 17.8315C2.55585 17.8315 2.33413 17.6096 2.33413 17.3384L2.33414 12.426C2.33414 12.1548 2.55585 11.9329 2.82684 11.9329C3.09783 11.9329 3.31955 12.1548 3.31955 12.426L3.31955 17.3384C3.32263 17.6096 3.10091 17.8315 2.82684 17.8315Z" fill="white"/>
<path d="M5.24423 17.8315C4.97324 17.8315 4.75152 17.6096 4.75152 17.3384L4.75152 12.426C4.75152 12.1548 4.97324 11.9329 5.24423 11.9329C5.51522 11.9329 5.73694 12.1548 5.73694 12.426L5.73694 17.3384C5.73694 17.6096 5.51522 17.8315 5.24423 17.8315Z" fill="white"/>
<path d="M7.65854 17.8315C7.38755 17.8315 7.16583 17.6096 7.16583 17.3384L7.16583 12.426C7.16583 12.1548 7.38755 11.9329 7.65854 11.9329C7.92953 11.9329 8.15125 12.1548 8.15125 12.426L8.15124 17.3384C8.15124 17.6096 7.93261 17.8315 7.65854 17.8315Z" fill="white"/>
<path d="M10.0759 17.8315C9.80491 17.8315 9.58319 17.6096 9.58319 17.3384L9.58319 12.426C9.58319 12.1548 9.80491 11.9329 10.0759 11.9329C10.3469 11.9329 10.5686 12.1548 10.5686 12.426L10.5686 17.3384C10.5686 17.6096 10.3469 17.8315 10.0759 17.8315Z" fill="white"/>
<path d="M12.4901 17.8315C12.2191 17.8315 11.9974 17.6096 11.9974 17.3384L11.9974 12.426C11.9974 12.1548 12.2191 11.9329 12.4901 11.9329C12.7611 11.9329 12.9828 12.1548 12.9828 12.426L12.9828 17.3384C12.9828 17.6096 12.7611 17.8315 12.4901 17.8315Z" fill="white"/>
</svg>
