<svg width="23" height="21" viewBox="0 0 23 21" fill="none" xmlns="http://www.w3.org/2000/svg">
<path d="M21.1653 10.8113C20.6457 10.5091 19.9995 10.5091 19.48 10.8081L14.8982 13.4534C14.6741 13.1316 14.3429 12.8976 13.9597 12.7937L8.6538 11.3703C7.7251 11.12 6.75094 11.2403 5.90991 11.7082L4.17915 12.6702V11.9097C4.17915 11.6367 3.95834 11.4158 3.68558 11.4158H0.493576C0.22081 11.4158 0 11.6367 0 11.9097V19.8976C0 20.1706 0.22081 20.3916 0.493576 20.3916H3.68558C3.95834 20.3916 4.17915 20.1706 4.17915 19.8976V18.9812C4.77339 19.3777 5.48453 19.5921 6.20216 19.5921H6.20541H10.0209C10.6606 19.5921 11.2938 19.4232 11.8491 19.1047L21.1653 13.7328C21.6881 13.4306 22.0096 12.8717 22.0031 12.2672C22.0096 11.6725 21.6848 11.1135 21.1653 10.8113ZM11.362 18.2532C10.9528 18.4872 10.4917 18.6075 10.0209 18.6075H6.20541C6.20216 18.6075 6.19892 18.6075 6.19892 18.6075C5.49102 18.6075 4.79612 18.3182 4.2993 17.8145L4.1824 17.6975V13.7978L6.3905 12.5694C7.00422 12.225 7.71861 12.1372 8.40052 12.3224L13.7065 13.7458C13.8883 13.7913 14.0474 13.9083 14.1448 14.0708C14.239 14.2333 14.2682 14.4315 14.2195 14.6103C14.1708 14.7923 14.0474 14.9482 13.8851 15.0425C13.7227 15.1335 13.5246 15.1595 13.3428 15.1042L9.83903 14.1651C9.71239 14.1293 9.57926 14.1488 9.4656 14.2138C9.35195 14.2788 9.27077 14.386 9.23505 14.5128C9.19933 14.6395 9.21882 14.7728 9.28376 14.8865C9.3487 15.0002 9.45586 15.0815 9.58251 15.1172C10.4722 15.3512 13.385 16.1182 13.5246 16.1182C13.9857 16.1247 14.4306 15.9362 14.7488 15.6014C15.054 15.283 15.2164 14.8508 15.2067 14.412L19.9736 11.6595C20.308 11.4678 20.7367 11.5815 20.9315 11.913C20.9932 12.0202 21.0257 12.1437 21.0289 12.2704C21.0322 12.5207 20.899 12.7547 20.6815 12.8814L11.362 18.2532ZM0.987149 19.4102V12.4069H3.19525V19.4102H0.987149Z" fill="white"/>
<path d="M12.3654 9.58618C14.3007 9.58618 16.0477 8.41952 16.7881 6.62891C17.5284 4.83829 17.1193 2.77795 15.749 1.40655C14.3819 0.0319066 12.3199 -0.377562 10.5307 0.366631C8.74149 1.10757 7.57574 2.85594 7.57574 4.7928C7.57899 7.4381 9.72215 9.58293 12.3654 9.58618ZM12.3654 0.798848C13.9792 0.798848 15.434 1.77052 16.051 3.26541C16.6679 4.75705 16.327 6.47617 15.1872 7.61683C14.0474 8.75749 12.3297 9.10197 10.8392 8.48127C9.34872 7.86381 8.37456 6.40792 8.37456 4.7928C8.37456 2.58946 10.1605 0.802098 12.3654 0.798848Z" fill="white"/>
<path d="M12.3653 6.78814C11.9237 6.78814 11.5665 6.43067 11.5665 5.9887C11.5665 5.76772 11.3879 5.58898 11.1671 5.58898C10.9463 5.58898 10.7677 5.76772 10.7677 5.9887C10.7709 6.71339 11.2613 7.3471 11.9659 7.52908V7.98405C11.9659 8.20503 12.1445 8.38377 12.3653 8.38377C12.5861 8.38377 12.7647 8.20503 12.7647 7.98405V7.52908C13.5408 7.3276 14.0506 6.58015 13.9467 5.78397C13.846 4.98778 13.1674 4.38982 12.3653 4.38982C12.0438 4.38982 11.7516 4.19484 11.6282 3.89586C11.5048 3.59688 11.573 3.25241 11.8003 3.02492C12.0276 2.79744 12.3718 2.7292 12.6706 2.85269C12.9693 2.97618 13.1641 3.26866 13.1641 3.59038C13.1641 3.81136 13.3427 3.9901 13.5635 3.9901C13.7844 3.9901 13.9629 3.81136 13.9629 3.59038C13.9597 2.86569 13.4694 2.23198 12.7647 2.05V1.59503C12.7647 1.37405 12.5861 1.19531 12.3653 1.19531C12.1445 1.19531 11.9659 1.37405 11.9659 1.59503V2.05C11.1898 2.25148 10.68 2.99893 10.7839 3.79512C10.8846 4.59131 11.5633 5.18926 12.3653 5.18926C12.8069 5.18926 13.1641 5.54673 13.1641 5.9887C13.1609 6.43067 12.8037 6.78814 12.3653 6.78814Z" fill="white"/>
</svg>
