<svg width="29" height="21" viewBox="0 0 29 21" fill="none" xmlns="http://www.w3.org/2000/svg">
<path d="M22.8786 10.3103H14.2971V16.7485H22.8786V10.3103Z" fill="#FFC742"/>
<path d="M27.7426 16.1026L27.125 15.6384L26.1401 13.487C25.9867 13.1479 25.6436 12.93 25.2722 12.93H23.359V10.3063C23.359 10.1731 23.254 10.0681 23.1208 10.0681H14.5353C14.4021 10.0681 14.2971 10.1731 14.2971 10.3063V18.6537C14.2971 19.0492 14.616 19.3681 15.0116 19.3681H15.2699C15.3829 20.0422 15.9722 20.5589 16.6786 20.5589C17.385 20.5589 17.9743 20.0422 18.0874 19.3681H24.3277C24.4407 20.0422 25.0301 20.5589 25.7364 20.5589C26.4428 20.5589 27.0321 20.0422 27.1452 19.3681H27.4035C27.7991 19.3681 28.1179 19.0492 28.1179 18.6537V16.8655C28.126 16.5668 27.9847 16.2802 27.7426 16.1026ZM26.5639 15.5537H24.3116V14.3629H26.015L26.5639 15.5537ZM14.7734 10.5485H22.8786V16.5103H14.7734V10.5485ZM16.6827 20.0826C16.1579 20.0826 15.7301 19.6547 15.7301 19.13C15.7301 18.6052 16.1579 18.1774 16.6827 18.1774C17.2074 18.1774 17.6353 18.6052 17.6353 19.13C17.6353 19.6547 17.2074 20.0826 16.6827 20.0826ZM25.7405 20.0826C25.2157 20.0826 24.7879 19.6547 24.7879 19.13C24.7879 18.6052 25.2157 18.1774 25.7405 18.1774C26.2652 18.1774 26.6931 18.6052 26.6931 19.13C26.6931 19.6547 26.2693 20.0826 25.7405 20.0826ZM27.6497 18.6537C27.6497 18.7869 27.5448 18.8918 27.4116 18.8918H27.1532C27.0402 18.2177 26.4509 17.7011 25.7445 17.7011C25.0381 17.7011 24.4488 18.2177 24.3358 18.8918H18.0914C17.9784 18.2177 17.389 17.7011 16.6827 17.7011C15.9763 17.7011 15.387 18.2177 15.2739 18.8918H15.0156C14.8824 18.8918 14.7775 18.7828 14.7775 18.6537V16.9866H23.1208C23.254 16.9866 23.359 16.8817 23.359 16.7485V13.4063H25.2722C25.4579 13.4063 25.6275 13.5153 25.7041 13.6848L25.797 13.8826H24.0734C23.9402 13.8826 23.8353 13.9875 23.8353 14.1207V15.7878C23.8353 15.921 23.9402 16.0259 24.0734 16.0259H26.8545L27.46 16.478C27.5811 16.5668 27.6497 16.7081 27.6497 16.8574V18.6537Z" fill="black"/>
<path d="M8.81555 1.19188L11.6491 3.13342L13.7602 1.91037L9.76816 0.715576L8.81555 1.19188Z" fill="#FFC742"/>
<path d="M19.0359 0.158652C18.1317 -0.1239 17.167 -0.0270251 16.2427 0.433131L13.9136 1.67232L9.6269 0.485604C9.57039 0.469459 9.50581 0.477531 9.45334 0.505787L8.56935 0.969979C8.49669 1.01034 8.44826 1.083 8.44018 1.16777C8.43615 1.25253 8.47651 1.33326 8.54513 1.37766L11.1769 3.12545L8.60568 4.48573L6.82156 3.14563C6.74083 3.08508 6.63185 3.08105 6.54708 3.13756L5.83263 3.61386C5.72365 3.68652 5.69539 3.83183 5.76401 3.94081L7.28576 6.31828C7.41896 6.54836 7.66518 6.6856 7.92352 6.67349C8.80347 6.63717 9.65919 6.43131 10.4624 6.06399L12.5009 5.1356L11.9236 8.78052C11.9115 8.84914 11.9317 8.91776 11.9761 8.97427C12.0205 9.02675 12.0891 9.05904 12.1578 9.05904H13.1104C13.2032 9.05904 13.2839 9.00657 13.3243 8.9218L15.8874 3.59771L19.3305 2.03157C19.7544 1.83782 20.0289 1.48261 20.0289 1.11933C20.0289 0.820631 19.8553 0.412949 19.0359 0.158652ZM9.14253 1.20006L9.58654 0.965943L13.3001 1.99524L11.6572 2.86711L9.14253 1.20006ZM19.1328 1.59563L15.6089 3.1981C15.5565 3.22232 15.5161 3.26269 15.4919 3.31112L12.9651 8.5787H12.4403L13.0417 4.77232C13.0539 4.68756 13.0216 4.59875 12.9489 4.54628C12.8803 4.49381 12.7874 4.4817 12.7067 4.51802L10.2647 5.62805C9.51792 5.96711 8.72274 6.15683 7.90333 6.19315C7.81857 6.19719 7.74188 6.14875 7.6894 6.06399L6.28875 3.88027L6.66818 3.62597L8.44018 4.95396C8.51284 5.01047 8.61375 5.01855 8.69448 4.97415L16.4566 0.852922C17.2639 0.449277 18.1035 0.364511 18.8906 0.610735C19.0884 0.671282 19.5485 0.84485 19.5485 1.11933C19.5526 1.28886 19.379 1.48261 19.1328 1.59563Z" fill="black"/>
<path d="M1.66309 12.4537V14.6011C1.66309 14.6011 4.77923 13.3498 5.96191 13.4991C7.1446 13.6485 9.78444 14.3993 10.0145 14.6213L10.2446 13.8866V12.4577C10.2446 12.4577 6.19199 11.267 5.47754 11.5051C4.76309 11.7433 1.81243 12.1711 1.66309 12.4537Z" fill="#FFC742"/>
<path d="M9.20716 13.3578C9.23945 13.37 9.27174 13.378 9.3 13.378C9.39284 13.378 9.48164 13.3256 9.51797 13.2327C9.57044 13.1116 9.51393 12.9703 9.39284 12.9179C9.33633 12.8937 7.95182 12.3003 5.96185 12.3003C3.97187 12.3003 2.58737 12.8896 2.53086 12.9179C2.40976 12.9703 2.35325 13.1116 2.40573 13.2327C2.4582 13.3538 2.59948 13.4103 2.72057 13.3578C2.73268 13.3538 4.07682 12.7806 5.96185 12.7806C7.84687 12.7806 9.19101 13.3498 9.20716 13.3578Z" fill="black"/>
<path d="M5.96178 18.7384C6.09499 18.7384 6.19994 18.6334 6.19994 18.5002V14.4476C6.19994 14.3144 6.09499 14.2095 5.96178 14.2095C5.82858 14.2095 5.72363 14.3144 5.72363 14.4476V18.5002C5.72363 18.6334 5.83262 18.7384 5.96178 18.7384Z" fill="black"/>
<path d="M11.6855 20.4095C11.4797 20.4095 11.3384 20.2965 11.1285 20.1108C10.9065 19.9171 10.6522 19.6951 10.2566 19.6951C9.86104 19.6951 9.60674 19.9171 9.38473 20.1108C9.17484 20.2965 9.03356 20.4095 8.8277 20.4095C8.62184 20.4095 8.48057 20.2965 8.27067 20.1108C8.04867 19.9171 7.79437 19.6951 7.3988 19.6951C7.00322 19.6951 6.74893 19.9171 6.52692 20.1108C6.31702 20.2965 6.17575 20.4095 5.96989 20.4095C5.76403 20.4095 5.62275 20.2965 5.41286 20.1108C5.19085 19.9171 4.93656 19.6951 4.54098 19.6951C4.14541 19.6951 3.89111 19.9171 3.66911 20.1108C3.45921 20.2965 3.31794 20.4095 3.11208 20.4095C2.90622 20.4095 2.76494 20.2965 2.55505 20.1108C2.33304 19.9171 2.07874 19.6951 1.68317 19.6951C1.2876 19.6951 1.0333 19.9171 0.811296 20.1108C0.6014 20.2965 0.460124 20.4095 0.254264 20.4095C0.121061 20.4095 0.0161133 20.5145 0.0161133 20.6477C0.0161133 20.7809 0.121061 20.8858 0.254264 20.8858C0.649837 20.8858 0.904134 20.6638 1.12614 20.4701C1.33604 20.2844 1.47731 20.1714 1.68317 20.1714C1.88903 20.1714 2.03031 20.2844 2.2402 20.4701C2.46221 20.6638 2.7165 20.8858 3.11208 20.8858C3.50765 20.8858 3.76195 20.6638 3.98395 20.4701C4.19385 20.2844 4.33512 20.1714 4.54098 20.1714C4.74684 20.1714 4.88812 20.2844 5.09801 20.4701C5.32002 20.6638 5.57432 20.8858 5.96989 20.8858C6.36546 20.8858 6.61976 20.6638 6.84176 20.4701C7.05166 20.2844 7.19294 20.1714 7.3988 20.1714C7.60466 20.1714 7.74593 20.2844 7.95583 20.4701C8.17783 20.6638 8.43213 20.8858 8.8277 20.8858C9.22328 20.8858 9.47757 20.6638 9.69958 20.4701C9.90947 20.2844 10.0507 20.1714 10.2566 20.1714C10.4625 20.1714 10.6037 20.2844 10.8136 20.4701C11.0356 20.6638 11.2899 20.8858 11.6855 20.8858C11.8187 20.8858 11.9237 20.7809 11.9237 20.6477C11.9237 20.5145 11.8147 20.4095 11.6855 20.4095Z" fill="black"/>
<path d="M0.242188 19.6951C0.63776 19.6951 0.892057 19.4731 1.11406 19.2793C1.32396 19.0937 1.46523 18.9806 1.67109 18.9806C1.74779 18.9806 1.81237 18.9968 1.87695 19.025C1.88099 19.025 1.88099 19.025 1.88503 19.0291C1.99401 19.0775 2.09896 19.1663 2.23216 19.2834C2.45417 19.4771 2.70846 19.6991 3.10404 19.6991C3.49961 19.6991 3.75391 19.4771 3.97591 19.2834C4.18581 19.0977 4.32708 18.9847 4.53294 18.9847C4.7388 18.9847 4.88008 19.0977 5.08997 19.2834C5.31198 19.4771 5.56628 19.6991 5.96185 19.6991C6.35742 19.6991 6.61172 19.4771 6.83372 19.2834C7.04362 19.0977 7.1849 18.9847 7.39076 18.9847C7.59661 18.9847 7.73789 19.0977 7.94779 19.2834C8.16979 19.4771 8.42409 19.6991 8.81966 19.6991C9.21523 19.6991 9.46953 19.4771 9.69154 19.2834C9.90143 19.0977 10.0427 18.9847 10.2486 18.9847C10.4544 18.9847 10.5957 19.0977 10.8056 19.2834C11.0276 19.4771 11.2819 19.6991 11.6775 19.6991C11.8107 19.6991 11.9156 19.5942 11.9156 19.461C11.9156 19.3278 11.8107 19.2228 11.6775 19.2228C11.4716 19.2228 11.3303 19.1098 11.1204 18.9241C10.9186 18.7465 10.6885 18.5447 10.3495 18.5124L11.6169 15.7151C11.6977 15.5375 11.7017 15.3357 11.629 15.1541C11.5564 14.9724 11.4191 14.8312 11.2375 14.7585C11.0357 14.6778 10.7814 14.5728 10.4867 14.4598V12.3931C10.4867 12.3003 10.4302 12.2155 10.3454 12.1752C10.3212 12.1631 10.1194 12.0743 9.77227 11.9572V11.2347C9.77227 11.1378 9.71172 11.049 9.62292 11.0127C9.57448 10.9925 8.58958 10.6009 7.08802 10.4556L6.66016 9.13571C6.62786 9.03883 6.53503 8.97021 6.43411 8.97021H5.48151C5.37656 8.97021 5.28776 9.0348 5.25547 9.13571L4.8276 10.4556C3.32604 10.6009 2.34518 10.9925 2.29271 11.0127C2.20391 11.049 2.14336 11.1378 2.14336 11.2347V11.9532C1.79622 12.0702 1.59036 12.159 1.57018 12.1711C1.48542 12.2115 1.42891 12.2963 1.42891 12.3891V14.4558C1.13828 14.5688 0.879948 14.6697 0.678125 14.7545C0.496484 14.8271 0.359245 14.9684 0.286588 15.15C0.213932 15.3317 0.217969 15.5295 0.298698 15.7111L1.56615 18.5084C1.22708 18.5407 0.997005 18.7425 0.795182 18.9201C0.585286 19.1058 0.44401 19.2188 0.238151 19.2188C0.104948 19.2188 0 19.3237 0 19.4569C0 19.5901 0.108984 19.6951 0.242188 19.6951ZM5.65911 9.44248H6.26458L6.57943 10.4112C6.38164 10.3991 6.17578 10.3951 5.96185 10.3951C5.74792 10.3951 5.54206 10.4032 5.34427 10.4112L5.65911 9.44248ZM2.6237 11.3961C3.04349 11.2508 4.30286 10.8714 5.96185 10.8714C7.61276 10.8714 8.88021 11.2508 9.3 11.3961V11.8038C8.52096 11.5858 7.35846 11.3477 5.96185 11.3477C4.56523 11.3477 3.40273 11.5858 2.6237 11.8038V11.3961ZM1.90924 12.5465C2.3694 12.3649 3.9194 11.824 5.96185 11.824C8.0043 11.824 9.5543 12.3649 10.0145 12.5465V14.2741C8.7349 13.8019 7.03151 13.2569 5.96185 13.2569C4.89219 13.2569 3.1888 13.8019 1.90924 14.2741V12.5465ZM0.734635 15.3236C0.758854 15.2631 0.803255 15.2187 0.863802 15.1904C1.93346 14.7504 4.56523 13.7292 5.96185 13.7292C7.35846 13.7292 9.99023 14.7504 11.0599 15.1904C11.1204 15.2146 11.1648 15.2631 11.1891 15.3236C11.2133 15.3841 11.2133 15.4528 11.185 15.5093L9.7763 18.6214C9.62292 18.7021 9.49779 18.8151 9.38073 18.916C9.17083 19.1017 9.02956 19.2147 8.8237 19.2147C8.61784 19.2147 8.47656 19.1017 8.26667 18.916C8.04466 18.7223 7.79036 18.5003 7.39479 18.5003C6.99922 18.5003 6.74492 18.7223 6.52292 18.916C6.31302 19.1017 6.17174 19.2147 5.96589 19.2147C5.76003 19.2147 5.61875 19.1017 5.40885 18.916C5.18685 18.7223 4.93255 18.5003 4.53698 18.5003C4.14141 18.5003 3.88711 18.7223 3.6651 18.916C3.45521 19.1017 3.31393 19.2147 3.10807 19.2147C2.90221 19.2147 2.76094 19.1017 2.55104 18.916C2.43398 18.8111 2.30482 18.7021 2.15547 18.6214L0.746745 15.5093C0.714453 15.4528 0.710417 15.3841 0.734635 15.3236Z" fill="black"/>
</svg>
