<svg width="349" height="97" viewBox="0 0 349 97" fill="none" xmlns="http://www.w3.org/2000/svg">
<path d="M152.112 22.5278V73.4888H142.042V41.3374L128.545 73.4888H121.261L107.764 41.5562V73.4888H97.6943V22.5278H108.835L124.903 60.1471L140.971 22.5278H152.112Z" fill="black"/>
<path d="M163.467 68.2396C159.61 64.3027 157.682 59.2722 157.682 53.1482C157.682 47.0241 159.61 41.9936 163.467 38.0567C167.323 34.1198 172.251 32.3701 178.035 32.3701C183.82 32.3701 188.747 34.3386 192.604 38.0567C196.46 41.7749 198.388 46.8054 198.388 53.1482C198.388 59.2722 196.46 64.3027 192.389 68.2396C188.533 72.1765 183.605 73.9262 177.821 73.9262C172.251 73.9262 167.323 72.1765 163.467 68.2396ZM178.035 65.3963C180.82 65.3963 183.177 64.3027 185.319 62.1155C187.248 59.9284 188.319 57.0851 188.319 53.1482C188.319 49.2113 187.248 46.368 185.319 44.1808C183.391 41.9936 180.82 41.1188 178.035 41.1188C175.25 41.1188 172.893 42.2124 170.751 44.1808C168.823 46.368 167.752 49.2113 167.752 53.1482C167.752 57.0851 168.823 59.9284 170.751 62.1155C172.893 64.3027 175.25 65.3963 178.035 65.3963Z" fill="black"/>
<path d="M213.814 33.0263V39.1504C216.384 34.776 220.455 32.5889 226.025 32.5889C230.524 32.5889 234.166 34.1199 237.166 37.1819C239.951 40.2439 241.451 44.3995 241.451 49.8675V73.7075H231.381V51.1798C231.381 48.1177 230.524 45.4931 229.025 43.9621C227.525 42.2124 225.383 41.3375 222.597 41.3375C219.812 41.3375 217.67 42.2124 216.17 43.9621C214.67 45.7119 213.814 48.1177 213.814 51.1798V73.4888H203.744V33.0263H213.814Z" fill="black"/>
<path d="M248.735 73.4888V19.4658H258.804V73.4888H248.735Z" fill="black"/>
<path d="M269.945 68.2396C266.088 64.3027 264.16 59.2722 264.16 53.1482C264.16 47.0241 266.088 41.9936 269.945 38.0567C273.801 34.3386 278.729 32.3701 284.513 32.3701C290.298 32.3701 295.225 34.3386 299.082 38.0567C302.938 41.7749 304.866 46.8054 304.866 53.1482C304.866 59.2722 302.938 64.3027 298.867 68.2396C295.011 72.1765 290.084 73.9262 284.299 73.9262C278.729 73.9262 273.801 72.1765 269.945 68.2396ZM284.513 65.3963C287.298 65.3963 289.655 64.3027 291.797 62.1155C293.726 59.9284 294.797 57.0851 294.797 53.1482C294.797 49.2113 293.726 46.368 291.797 44.1808C289.869 41.9936 287.298 41.1188 284.513 41.1188C281.728 41.1188 279.371 42.2124 277.229 44.1808C275.301 46.368 274.23 49.2113 274.23 53.1482C274.23 57.0851 275.301 59.9284 277.229 62.1155C279.371 64.3027 281.728 65.3963 284.513 65.3963Z" fill="black"/>
<path d="M313.007 68.0209C309.365 64.084 307.651 59.0535 307.651 52.9294C307.651 46.8054 309.365 41.7749 313.007 38.0567C316.65 34.3385 320.934 32.1514 326.505 32.1514C332.075 32.1514 336.146 34.3385 338.931 38.9316V32.5888H349V73.27C349 78.9567 347.286 83.7684 344.072 87.4866C340.645 91.2048 336.146 92.9545 329.933 92.9545C323.934 92.9545 319.22 91.6422 315.578 89.0176C311.936 86.393 310.008 82.8936 309.58 78.0818H319.435C320.077 79.8315 321.149 81.3626 323.077 82.4561C324.791 83.5497 327.147 83.9872 329.718 83.9872C332.289 83.9872 334.646 83.1123 336.36 81.3626C338.074 79.6128 339.145 76.7695 339.145 73.27V66.2711C336.146 71.0829 332.075 73.7075 326.719 73.7075C320.934 73.9262 316.65 71.9578 313.007 68.0209ZM335.717 61.8968C337.859 59.7096 338.931 56.8663 338.931 53.1481C338.931 49.43 337.859 46.5866 335.717 44.3995C333.575 42.2123 331.218 41.1187 328.433 41.1187C325.648 41.1187 323.077 42.2123 321.149 44.1808C319.006 46.3679 317.935 49.2112 317.935 52.9294C317.935 56.6476 319.006 59.4909 321.149 61.6781C323.291 63.8652 325.648 64.9588 328.433 64.9588C331.218 64.9588 333.575 64.084 335.717 61.8968Z" fill="black"/>
<path d="M22.2805 73.4887H0.213623V0L22.2805 22.5278V73.4887Z" fill="black"/>
<path d="M77.5556 73.4887H55.4886V0L77.5556 22.5278V73.4887Z" fill="black"/>
<path d="M27.8514 28.2144V73.4886H49.9184V50.7421L27.8514 28.2144Z" fill="black"/>
<path d="M0 86.6111H0.856967V92.7351H4.07059V93.3913H0V86.6111Z" fill="black"/>
<path d="M5.57031 90.7666C5.57031 89.0169 6.64152 87.9233 7.92698 87.9233C9.21243 87.9233 10.2836 89.0169 10.2836 90.7666C10.2836 92.5164 9.21243 93.61 7.92698 93.61C6.64152 93.61 5.57031 92.7351 5.57031 90.7666ZM9.42667 90.7666C9.42667 89.4544 8.78394 88.7982 7.92698 88.7982C7.07001 88.7982 6.42728 89.4544 6.42728 90.7666C6.42728 92.0789 7.07001 92.7351 7.92698 92.7351C8.78394 92.9538 9.42667 92.2977 9.42667 90.7666Z" fill="black"/>
<path d="M12.8545 94.0474C13.0688 94.7036 13.283 95.141 14.14 95.141C14.997 95.141 15.4254 94.7036 15.4254 93.8287V93.1726C15.2112 93.3913 14.7827 93.8287 13.9258 93.8287C12.6403 93.8287 11.5691 92.7351 11.5691 90.9854C11.5691 89.2357 12.6403 88.1421 13.9258 88.1421C14.5685 88.1421 14.997 88.3608 15.4254 88.7982V88.3608H16.2824V93.8287C16.2824 95.3597 15.4254 96.2346 14.14 96.2346C13.0688 96.2346 12.4261 95.5784 11.9976 94.7036L12.8545 94.0474ZM15.6397 90.1105C15.6397 89.4544 15.2112 88.7982 14.3542 88.7982C13.283 88.7982 12.8545 89.6731 12.8545 90.7667C12.8545 92.079 13.4973 92.7351 14.3542 92.7351C15.2112 92.7351 15.6397 92.079 15.6397 91.6416V90.1105Z" fill="black"/>
<path d="M18.639 88.1428H21.2099V92.7358H22.9239V93.3919H18.639V92.7358H20.353V88.7989H18.639V88.1428ZM20.353 86.1743H21.2099V87.0492H20.353V86.1743Z" fill="black"/>
<path d="M25.4948 91.6416C25.709 92.5164 26.1375 92.9539 27.2087 92.9539C28.2799 92.9539 28.4942 92.5164 28.4942 92.079C28.4942 91.6416 28.2799 91.4228 26.7802 90.9854C25.0663 90.548 24.8521 90.1105 24.8521 89.4544C24.8521 88.7982 25.4948 88.1421 26.7802 88.1421C28.0657 88.1421 28.7084 88.7982 28.9226 89.6731L28.2799 89.8918C28.0657 89.2357 27.6372 88.7982 26.7802 88.7982C25.9233 88.7982 25.709 89.2357 25.709 89.4544C25.709 89.8918 25.709 90.1105 27.4229 90.3293C29.1369 90.7667 29.3511 91.2041 29.3511 92.079C29.3511 92.9539 28.9226 93.61 27.2087 93.61C25.4948 93.61 24.8521 92.7351 24.8521 91.6416H25.4948Z" fill="black"/>
<path d="M32.5648 89.0175H30.8508V88.3614H32.5648V87.0491H33.4217V88.3614H35.3499V89.0175H33.4217V91.8609C33.4217 92.517 33.636 92.7357 34.0645 92.7357H34.9214V93.6106H34.0645C32.9933 93.6106 32.5648 92.9544 32.5648 92.0796V89.0175Z" fill="black"/>
<path d="M37.7065 88.1428H40.2774V92.7358H41.9914V93.3919H37.7065V92.7358H39.4205V88.7989H37.7065V88.1428ZM39.4205 86.1743H40.2774V87.0492H39.4205V86.1743Z" fill="black"/>
<path d="M48.4186 91.6415C48.2044 92.9538 47.3474 93.61 46.2762 93.61C44.9908 93.61 43.9196 92.5164 43.9196 90.7666C43.9196 89.0169 44.9908 87.9233 46.2762 87.9233C47.3474 87.9233 48.2044 88.7982 48.4186 89.8918L47.5617 90.1105C47.3474 89.4544 47.1332 88.7982 46.2762 88.7982C45.4193 88.7982 44.7765 89.4544 44.7765 90.7666C44.7765 92.0789 45.4193 92.7351 46.2762 92.7351C47.1332 92.7351 47.5617 92.0789 47.5617 91.2041L48.4186 91.6415Z" fill="black"/>
<path d="M50.7753 91.6416C50.9895 92.5164 51.418 92.9539 52.4892 92.9539C53.5604 92.9539 53.7747 92.5164 53.7747 92.079C53.7747 91.6416 53.5604 91.4228 52.0607 90.9854C50.3468 90.548 50.1326 90.1105 50.1326 89.4544C50.1326 88.7982 50.7753 88.1421 52.0607 88.1421C53.3462 88.1421 53.9889 88.7982 54.2032 89.6731L53.5604 89.8918C53.3462 89.2357 52.9177 88.7982 52.0607 88.7982C51.2038 88.7982 50.9895 89.2357 50.9895 89.4544C50.9895 89.8918 50.9895 90.1105 52.7035 90.3293C54.4174 90.7667 54.6317 91.2041 54.6317 92.079C54.6317 92.9539 54.2032 93.61 52.4892 93.61C50.7753 93.61 50.1326 92.7351 50.1326 91.6416H50.7753Z" fill="black"/>
<path d="M65.7722 92.9539C65.558 93.1726 65.1295 93.61 64.2725 93.61C62.9871 93.61 62.5586 92.9539 62.5586 92.079C62.5586 91.2041 62.9871 90.7667 64.2725 90.3293C65.1295 90.1105 65.7722 89.8918 65.7722 89.4544C65.7722 89.017 65.3437 88.5795 64.701 88.5795C63.844 88.5795 63.6298 89.017 63.4156 89.6731H62.5586C62.7728 88.7982 63.4156 88.1421 64.4868 88.1421C65.558 88.1421 66.4149 88.7982 66.4149 89.8918V93.61H65.7722V92.9539ZM63.2013 92.079C63.2013 92.5164 63.4156 92.9539 64.2725 92.9539C65.3437 92.9539 65.7722 92.5164 65.7722 91.8603V90.548C65.7722 90.7667 65.558 90.9854 64.4868 91.2041C63.4156 91.4228 63.2013 91.6416 63.2013 92.079Z" fill="black"/>
<path d="M68.7716 88.1421H69.6286V88.5795C69.8428 88.1421 70.4856 87.9233 71.1283 87.9233C72.1995 87.9233 73.0565 88.5795 73.0565 89.8918V93.3912H72.1995V90.1105C72.1995 89.2356 71.771 88.5795 71.1283 88.5795C70.2713 88.5795 69.8428 89.0169 69.8428 89.8918V93.1725H68.9859V88.1421H68.7716Z" fill="black"/>
<path d="M78.6269 92.9545C78.4126 93.1732 77.7699 93.6107 77.1272 93.6107C75.8417 93.6107 74.7705 92.5171 74.7705 90.7674C74.7705 89.0176 75.8417 87.924 77.1272 87.924C77.7699 87.924 78.1984 88.3615 78.6269 88.5802V86.1743H79.2696V93.392H78.6269V92.9545ZM78.4126 90.1112C78.4126 89.4551 77.9841 88.7989 77.1272 88.7989C76.056 88.7989 75.6275 89.6738 75.6275 90.7674C75.6275 92.0797 76.2702 92.7358 77.1272 92.7358C77.9841 92.7358 78.4126 92.0797 78.4126 91.6422V90.1112Z" fill="black"/>
<path d="M87.6249 86.6111H91.4812V87.2672H88.2676V89.8918H91.0527V90.548H88.2676V93.61H87.4106V86.6111H87.6249Z" fill="black"/>
<path d="M93.4094 90.7666C93.4094 89.0169 94.4806 87.9233 95.7661 87.9233C97.0515 87.9233 98.1227 89.0169 98.1227 90.7666C98.1227 92.5164 97.0515 93.61 95.7661 93.61C94.4806 93.61 93.4094 92.7351 93.4094 90.7666ZM97.2658 90.7666C97.2658 89.4544 96.6231 88.7982 95.7661 88.7982C94.9091 88.7982 94.2664 89.4544 94.2664 90.7666C94.2664 92.0789 94.9091 92.7351 95.7661 92.7351C96.6231 92.9538 97.2658 92.2977 97.2658 90.7666Z" fill="black"/>
<path d="M100.694 88.1421H101.551V89.017C101.765 88.5795 102.408 88.1421 103.05 88.1421C103.907 88.1421 104.336 88.5795 104.764 89.4544L103.693 89.6731C103.479 89.2357 103.265 88.7982 102.622 88.7982C101.765 88.7982 101.336 89.4544 101.336 90.3293V93.1726H100.694V88.1421Z" fill="black"/>
<path d="M105.835 88.1421H106.692L107.335 92.079L107.978 89.8918H108.621L109.263 92.079L109.906 88.1421H110.763L109.906 93.3913H109.263L108.406 90.7667L107.549 93.3913H106.907L105.835 88.1421Z" fill="black"/>
<path d="M116.119 92.9539C115.905 93.1726 115.476 93.61 114.619 93.61C113.334 93.61 112.906 92.9539 112.906 92.079C112.906 91.2041 113.334 90.7667 114.619 90.3293C115.476 90.1105 116.119 89.8918 116.119 89.4544C116.119 89.017 115.691 88.5795 115.048 88.5795C114.191 88.5795 113.977 89.017 113.762 89.6731H112.906C113.12 88.7982 113.762 88.1421 114.834 88.1421C115.905 88.1421 116.762 88.7982 116.762 89.8918V93.61H116.119V92.9539ZM113.548 92.079C113.548 92.5164 113.762 92.9539 114.619 92.9539C115.691 92.9539 116.119 92.5164 116.119 91.8603V90.548C116.119 90.7667 115.905 90.9854 114.834 91.2041C113.762 91.4228 113.548 91.6416 113.548 92.079Z" fill="black"/>
<path d="M119.761 88.1421H120.618V89.017C120.832 88.5795 121.475 88.1421 122.118 88.1421C122.975 88.1421 123.403 88.5795 123.832 89.4544L122.761 89.6731C122.546 89.2357 122.332 88.7982 121.689 88.7982C120.832 88.7982 120.404 89.4544 120.404 90.3293V93.1726H119.547V88.1421H119.761Z" fill="black"/>
<path d="M128.759 92.9545C128.545 93.1732 127.902 93.6107 127.26 93.6107C125.974 93.6107 124.903 92.5171 124.903 90.7674C124.903 89.0176 125.974 87.924 127.26 87.924C127.902 87.924 128.331 88.3615 128.759 88.5802V86.1743H129.616V93.392H128.974V92.9545H128.759ZM128.759 90.1112C128.759 89.4551 128.331 88.7989 127.474 88.7989C126.403 88.7989 125.974 89.6738 125.974 90.7674C125.974 92.0797 126.617 92.7358 127.474 92.7358C128.331 92.7358 128.759 92.0797 128.759 91.6422V90.1112Z" fill="black"/>
<path d="M131.759 88.1428H134.33V92.7358H136.044V93.3919H131.759V92.7358H133.473V88.7989H131.759V88.1428ZM133.473 86.1743H134.33V87.0492H133.473V86.1743Z" fill="black"/>
<path d="M137.972 88.1421H138.829V88.5795C139.043 88.1421 139.686 87.9233 140.328 87.9233C141.4 87.9233 142.257 88.5795 142.257 89.8918V93.3912H141.4V90.1105C141.4 89.2356 140.971 88.5795 140.328 88.5795C139.471 88.5795 139.043 89.0169 139.043 89.8918V93.1725H138.186V88.1421H137.972Z" fill="black"/>
<path d="M145.042 94.0474C145.256 94.7036 145.47 95.141 146.327 95.141C147.184 95.141 147.613 94.7036 147.613 93.8287V93.1726C147.398 93.3913 146.97 93.8287 146.113 93.8287C144.827 93.8287 143.756 92.7351 143.756 90.9854C143.756 89.2357 144.827 88.1421 146.113 88.1421C146.756 88.1421 147.184 88.3608 147.613 88.7982V88.3608H148.47V93.8287C148.47 95.3597 147.613 96.2346 146.327 96.2346C145.256 96.2346 144.613 95.5784 144.185 94.7036L145.042 94.0474ZM147.827 90.1105C147.827 89.4544 147.398 88.7982 146.541 88.7982C145.47 88.7982 145.042 89.6731 145.042 90.7667C145.042 92.079 145.684 92.7351 146.541 92.7351C147.398 92.7351 147.827 92.079 147.827 91.6416V90.1105Z" fill="black"/>
<path d="M157.039 90.9873C157.254 92.2996 157.682 92.9558 158.968 92.9558C160.039 92.9558 160.467 92.2996 160.467 91.6435C160.467 90.9873 160.253 90.5499 158.753 90.1125C157.468 89.675 156.611 89.2376 156.611 88.144C156.611 87.0504 157.468 86.3943 158.753 86.3943C159.824 86.3943 160.896 87.0504 161.11 88.3627L160.253 88.5815C160.039 87.7066 159.824 87.2692 158.753 87.2692C157.896 87.2692 157.468 87.7066 157.468 88.3627C157.468 88.8002 157.682 89.0189 158.968 89.675C160.681 90.3312 161.11 90.7686 161.11 91.8622C161.11 92.9558 160.253 93.8307 158.753 93.8307C157.254 93.8307 156.397 92.9558 156.182 91.2061L157.039 90.9873Z" fill="black"/>
<path d="M167.109 92.2977C166.68 92.9538 166.037 93.61 164.966 93.61C163.681 93.61 162.61 92.5164 162.61 90.7666C162.61 89.0169 163.681 87.9233 164.966 87.9233C166.252 87.9233 167.323 89.0169 167.323 90.7666V90.9854H163.467C163.467 91.8602 163.895 92.7351 164.966 92.7351C166.037 92.7351 166.252 92.0789 166.466 91.6415L167.109 92.2977ZM166.466 90.5479C166.466 89.6731 166.037 88.7982 164.966 88.7982C163.895 88.7982 163.467 89.8918 163.467 90.5479H166.466Z" fill="black"/>
<path d="M169.894 88.1421H170.751V89.017C170.965 88.5795 171.608 88.1421 172.25 88.1421C173.107 88.1421 173.536 88.5795 173.964 89.4544L173.107 89.6731C172.893 89.2357 172.679 88.7982 172.036 88.7982C171.179 88.7982 170.751 89.4544 170.751 90.3293V93.1726H169.894V88.1421Z" fill="black"/>
<path d="M175.25 88.1421H176.107L177.607 92.2977L179.106 88.1421H179.963L177.821 93.3913H177.178L175.25 88.1421Z" fill="black"/>
<path d="M182.106 88.1428H184.676V92.7358H186.39V93.3919H182.106V92.7358H183.82V88.7989H182.106V88.1428ZM183.82 86.1743H184.676V87.0492H183.82V86.1743Z" fill="black"/>
<path d="M192.818 91.6415C192.603 92.9538 191.746 93.61 190.675 93.61C189.39 93.61 188.319 92.5164 188.319 90.7666C188.319 89.0169 189.39 87.9233 190.675 87.9233C191.746 87.9233 192.603 88.7982 192.818 89.8918L191.961 90.1105C191.746 89.4544 191.532 88.7982 190.675 88.7982C189.818 88.7982 189.176 89.4544 189.176 90.7666C189.176 92.0789 189.818 92.7351 190.675 92.7351C191.532 92.7351 191.961 92.0789 191.961 91.2041L192.818 91.6415Z" fill="black"/>
<path d="M198.816 92.2977C198.388 92.9538 197.745 93.61 196.674 93.61C195.389 93.61 194.317 92.5164 194.317 90.7666C194.317 89.0169 195.389 87.9233 196.674 87.9233C197.96 87.9233 199.031 89.0169 199.031 90.7666V90.9854H195.174C195.174 91.8602 195.603 92.7351 196.674 92.7351C197.745 92.7351 197.96 92.0789 198.174 91.6415L198.816 92.2977ZM198.174 90.5479C198.174 89.6731 197.745 88.7982 196.674 88.7982C195.603 88.7982 195.174 89.8918 195.174 90.5479H198.174Z" fill="black"/>
<path d="M201.602 91.6416C201.816 92.5164 202.244 92.9539 203.316 92.9539C204.387 92.9539 204.601 92.5164 204.601 92.079C204.601 91.6416 204.387 91.4228 202.887 90.9854C201.173 90.548 200.959 90.1105 200.959 89.4544C200.959 88.7982 201.602 88.1421 202.887 88.1421C204.173 88.1421 204.815 88.7982 205.03 89.6731L204.387 89.8918C204.173 89.2357 203.744 88.7982 202.887 88.7982C202.03 88.7982 201.816 89.2357 201.816 89.4544C201.816 89.8918 201.816 90.1105 203.53 90.3293C205.244 90.7667 205.458 91.2041 205.458 92.079C205.458 92.9539 205.03 93.61 203.316 93.61C201.602 93.61 200.959 92.7351 200.959 91.6416H201.602Z" fill="black"/>
</svg>
