<svg width="21" height="21" viewBox="0 0 21 21" fill="none" xmlns="http://www.w3.org/2000/svg">
<path d="M2.83911 5.95061V9.61024C2.83911 9.61024 8.15487 7.47496 10.1734 7.72951C12.1918 7.98407 16.693 9.26285 17.0853 9.64019L17.4777 8.39136V5.95061C17.4777 5.95061 10.5657 3.91714 9.34679 4.32443C8.12492 4.73173 3.09367 5.46545 2.83911 5.95061Z" fill="#FFC742"/>
<path d="M15.7047 7.48999C15.7586 7.51395 15.8125 7.52293 15.8664 7.52293C16.0252 7.52293 16.1719 7.43009 16.2408 7.27736C16.3306 7.07072 16.2348 6.83114 16.0282 6.74429C15.9293 6.70236 13.5664 5.69312 10.1733 5.69312C6.78025 5.69312 4.42036 6.69936 4.32153 6.74129C4.11489 6.83114 4.02205 7.07072 4.1089 7.27437C4.19874 7.48101 4.43533 7.57385 4.64197 7.487C4.66593 7.47801 6.95694 6.5047 10.1733 6.5047C13.3898 6.5047 15.6838 7.47801 15.7047 7.48999Z" fill="black"/>
<path d="M10.1733 16.6721C10.3979 16.6721 10.5806 16.4894 10.5806 16.2648V9.35285C10.5806 9.12824 10.3979 8.94556 10.1733 8.94556C9.94867 8.94556 9.76599 9.12824 9.76599 9.35285V16.2648C9.76899 16.4894 9.94867 16.6721 10.1733 16.6721Z" fill="black"/>
<path d="M19.9333 19.517C19.5799 19.517 19.3434 19.3223 18.981 19.0079C18.6007 18.6754 18.1694 18.2981 17.4926 18.2981C16.8158 18.2981 16.3845 18.6754 16.0042 19.0079C15.6418 19.3223 15.4052 19.517 15.0518 19.517C14.6984 19.517 14.4618 19.3223 14.0995 19.0079C13.7191 18.6754 13.2879 18.2981 12.6111 18.2981C11.9342 18.2981 11.503 18.6754 11.1227 19.0079C10.7603 19.3223 10.5237 19.517 10.1703 19.517C9.81693 19.517 9.58034 19.3223 9.21797 19.0079C8.83763 18.6754 8.40638 18.2981 7.72956 18.2981C7.05273 18.2981 6.62148 18.6754 6.24115 19.0079C5.87878 19.3223 5.64219 19.517 5.2888 19.517C4.93542 19.517 4.69883 19.3223 4.33646 19.0079C3.95612 18.6754 3.52487 18.2981 2.84805 18.2981C2.17122 18.2981 1.73997 18.6754 1.35964 19.0079C0.997266 19.3223 0.760677 19.517 0.407292 19.517C0.182682 19.517 0 19.6997 0 19.9243C0 20.1489 0.182682 20.3316 0.407292 20.3316C1.08411 20.3316 1.51536 19.9542 1.8957 19.6218C2.25807 19.3073 2.49466 19.1127 2.84805 19.1127C3.20143 19.1127 3.43802 19.3073 3.80039 19.6218C4.18073 19.9542 4.61198 20.3316 5.2888 20.3316C5.96563 20.3316 6.39688 19.9542 6.77721 19.6218C7.13958 19.3073 7.37617 19.1127 7.72956 19.1127C8.08294 19.1127 8.31953 19.3073 8.6819 19.6218C9.06224 19.9542 9.49349 20.3316 10.1703 20.3316C10.8471 20.3316 11.2784 19.9542 11.6587 19.6218C12.0211 19.3073 12.2577 19.1127 12.6111 19.1127C12.9645 19.1127 13.201 19.3073 13.5634 19.6218C13.9438 19.9542 14.375 20.3316 15.0518 20.3316C15.7286 20.3316 16.1599 19.9542 16.5402 19.6218C16.9026 19.3073 17.1392 19.1127 17.4926 19.1127C17.846 19.1127 18.0826 19.3073 18.4449 19.6218C18.8253 19.9542 19.2565 20.3316 19.9333 20.3316C20.1579 20.3316 20.3406 20.1489 20.3406 19.9243C20.3406 19.6997 20.1579 19.517 19.9333 19.517Z" fill="black"/>
<path d="M0.417057 18.2982C1.09388 18.2982 1.52513 17.9208 1.90547 17.5884C2.26784 17.274 2.50443 17.0793 2.85781 17.0793C2.97461 17.0793 3.07943 17.1003 3.17826 17.1392C3.19323 17.1452 3.2082 17.1512 3.22318 17.1572C3.40885 17.241 3.58555 17.3908 3.81016 17.5884C4.1905 17.9208 4.62175 18.2982 5.29857 18.2982C5.97539 18.2982 6.40664 17.9208 6.78698 17.5884C7.14935 17.274 7.38594 17.0793 7.73932 17.0793C8.09271 17.0793 8.3293 17.274 8.69167 17.5884C9.07201 17.9208 9.50326 18.2982 10.1801 18.2982C10.8569 18.2982 11.2882 17.9208 11.6685 17.5884C12.0309 17.274 12.2674 17.0793 12.6208 17.0793C12.9742 17.0793 13.2108 17.274 13.5732 17.5884C13.9535 17.9208 14.3848 18.2982 15.0616 18.2982C15.7384 18.2982 16.1697 17.9208 16.55 17.5884C16.7806 17.3848 16.9633 17.235 17.1549 17.1512C17.1609 17.1482 17.1669 17.1482 17.1729 17.1452C17.2747 17.1033 17.3826 17.0793 17.5023 17.0793C17.8557 17.0793 18.0923 17.274 18.4547 17.5884C18.835 17.9208 19.2663 18.2982 19.9431 18.2982C20.1677 18.2982 20.3504 18.1155 20.3504 17.8909C20.3504 17.6663 20.1677 17.4836 19.9431 17.4836C19.5897 17.4836 19.3531 17.2889 18.9908 16.9745C18.6434 16.672 18.254 16.3306 17.676 16.2737L19.8353 11.5C19.973 11.1945 19.982 10.8561 19.8592 10.5447C19.7365 10.2362 19.4999 9.99362 19.1914 9.86784C18.847 9.72708 18.4128 9.55039 17.9126 9.35872V5.83685C17.9126 5.67812 17.8198 5.53138 17.673 5.46549C17.6311 5.44753 17.2867 5.29479 16.6938 5.09414V3.86328C16.6938 3.69857 16.5919 3.54883 16.4392 3.48594C16.3523 3.45 14.6813 2.78516 12.1177 2.53359L11.387 0.28151C11.3331 0.113802 11.1773 0 11.0007 0H9.37448C9.19779 0 9.04206 0.113802 8.98815 0.28151L8.24544 2.53359C5.6819 2.78516 4.01081 3.45 3.92396 3.48594C3.77122 3.54883 3.6694 3.69857 3.6694 3.86328V5.09414C3.07344 5.2918 2.72904 5.44753 2.6901 5.46549C2.54336 5.53138 2.45052 5.67513 2.45052 5.83685V9.36172C1.95039 9.55338 1.51615 9.73008 1.17174 9.87083C0.863281 9.99661 0.626693 10.2362 0.503906 10.5447C0.38112 10.8561 0.390104 11.1945 0.527865 11.5L2.68711 16.2737C2.10612 16.3306 1.7168 16.672 1.3694 16.9745C1.00703 17.2889 0.770443 17.4836 0.417057 17.4836C0.192448 17.4836 0.00976562 17.6663 0.00976562 17.8909C0.00976562 18.1155 0.192448 18.2982 0.417057 18.2982ZM9.65899 0.814583H10.6952L11.2313 2.4707C10.8928 2.45273 10.5395 2.44375 10.1771 2.44375C9.81471 2.44375 9.46133 2.45273 9.12292 2.4707L9.65899 0.814583ZM4.48398 4.14779C5.19674 3.90221 7.35 3.25234 10.1771 3.25234C12.9952 3.25234 15.1544 3.90221 15.8702 4.14779V4.84557C14.5435 4.47122 12.5609 4.06693 10.1771 4.06693C7.79323 4.06693 5.81068 4.47122 4.48398 4.84557V4.14779ZM3.26211 6.10937C4.04675 5.80091 6.69115 4.88151 10.1741 4.88151C13.657 4.88151 16.3014 5.80391 17.0861 6.10937V9.05325C14.9059 8.24765 11.9979 7.31927 10.1741 7.31927C8.35026 7.31927 5.44232 8.24765 3.26211 9.05325V6.10937ZM1.25859 10.8471C1.30052 10.7453 1.37839 10.6645 1.48021 10.6225C3.30104 9.87383 7.79323 8.13385 10.1741 8.13385C12.5549 8.13385 17.0471 9.87383 18.868 10.6225C18.9698 10.6645 19.0477 10.7453 19.0896 10.8471C19.1315 10.952 19.1285 11.0628 19.0806 11.1676L16.6818 16.4743C16.4212 16.6121 16.2056 16.8008 16.0049 16.9775C15.6426 17.2919 15.406 17.4866 15.0526 17.4866C14.6992 17.4866 14.4626 17.2919 14.1003 16.9775C13.7199 16.645 13.2887 16.2677 12.6118 16.2677C11.935 16.2677 11.5038 16.645 11.1234 16.9775C10.7611 17.2919 10.5245 17.4866 10.1711 17.4866C9.81771 17.4866 9.58112 17.2919 9.21875 16.9775C8.83841 16.645 8.40716 16.2677 7.73034 16.2677C7.05352 16.2677 6.62227 16.645 6.24193 16.9775C5.87956 17.2919 5.64297 17.4866 5.28958 17.4866C4.9362 17.4866 4.69961 17.2919 4.33724 16.9775C4.13659 16.8008 3.91797 16.6121 3.66042 16.4743L1.26758 11.1646C1.21966 11.0628 1.21667 10.949 1.25859 10.8471Z" fill="black"/>
</svg>
