<svg width="18" height="21" viewBox="0 0 18 21" fill="none" xmlns="http://www.w3.org/2000/svg">
<path d="M2.15858 10.7965C2.571 12.1535 3.21909 13.4016 4.08425 14.5065C5.11995 15.8293 6.47815 16.9623 8.11854 17.868C8.29219 17.9645 8.49375 18.0143 8.69531 18.0143C8.89687 18.0143 9.09843 17.9645 9.27208 17.868C10.9125 16.9623 12.2707 15.8293 13.3064 14.5065C14.1715 13.4016 14.8196 12.1535 15.232 10.7965C15.9763 8.36249 15.7685 6.18687 15.6445 5.36518C15.5824 4.95433 15.3065 4.60262 14.9189 4.44389L12.1094 3.29227C12.0877 3.28293 12.0629 3.27671 12.0381 3.27048L9.14804 2.0784C8.85656 1.96013 8.53406 1.95702 8.23948 2.0784L2.47177 4.44389C2.08726 4.60262 1.80817 4.95433 1.74616 5.36518C1.62212 6.18687 1.41436 8.36249 2.15858 10.7965Z" fill="#FAC500"/>
<path d="M17.2383 4.16372C17.167 3.68751 16.8476 3.27666 16.4042 3.09302L9.21937 0.105046C8.88137 -0.0350154 8.50926 -0.0350154 8.16816 0.105046L0.983333 3.09302C0.539902 3.27666 0.220508 3.68751 0.149187 4.16372C0.000342806 5.19395 -0.253932 7.91737 0.660838 10.9676C1.17249 12.667 1.97253 14.2295 3.03924 15.6145C4.31992 17.2735 5.99752 18.6928 8.02862 19.8319C8.23018 19.944 8.46274 20.0062 8.69531 20.0062C8.93098 20.0062 9.16045 19.9471 9.36201 19.8319C11.3931 18.6928 13.0707 17.2735 14.3514 15.6145C15.4181 14.2295 16.2181 12.667 16.7298 10.9676C17.6477 7.91737 17.3903 5.19395 17.2383 4.16372ZM8.52166 0.95164C8.57748 0.92674 8.6364 0.917403 8.69531 0.917403C8.75423 0.917403 8.81315 0.929853 8.87207 0.95164L16.0569 3.93962C16.2057 4.00187 16.3112 4.13882 16.336 4.29755C16.4786 5.26553 16.7205 7.83022 15.8553 10.703C14.7917 14.245 12.4567 17.0463 8.91858 19.0289C8.78214 19.1067 8.61159 19.1067 8.47515 19.0289C4.937 17.0463 2.60201 14.245 1.5384 10.703C0.673242 7.83022 0.915113 5.26553 1.05776 4.29755C1.08256 4.13882 1.18799 4.00187 1.33684 3.93962" fill="black"/>
<path d="M14.922 4.44364C14.9189 4.44364 14.9189 4.44364 14.922 4.44364L12.1125 3.29202C12.0908 3.28269 12.066 3.27646 12.0412 3.27024L9.15115 2.07816C8.85966 1.95988 8.53716 1.95677 8.24258 2.07816L2.47177 4.44364C2.08726 4.60238 1.80817 4.95409 1.74616 5.36493C1.62212 6.18663 1.41436 8.36225 2.15858 10.7962C2.571 12.1532 3.21909 13.4014 4.08425 14.5063C5.11995 15.8291 6.47815 16.962 8.11854 17.8678C8.29219 17.9642 8.49375 18.014 8.69531 18.014C8.89687 18.014 9.09843 17.9642 9.27208 17.8678C10.9125 16.962 12.2707 15.8291 13.3064 14.5063C14.1715 13.4014 14.8196 12.1532 15.232 10.7962C15.9763 8.36225 15.7685 6.18663 15.6445 5.36493C15.5824 4.95409 15.3065 4.59926 14.922 4.44364ZM14.3607 10.5285C13.5141 13.308 11.6536 15.5054 8.83175 17.0647C8.74803 17.1114 8.64259 17.1114 8.55887 17.0647C5.73704 15.5054 3.87959 13.308 3.02993 10.5285C2.34153 8.2751 2.53379 6.26133 2.64852 5.50188C2.66403 5.40851 2.72605 5.32758 2.81597 5.29335L8.58678 2.93098C8.62089 2.91541 8.6581 2.90919 8.69531 2.90919C8.73252 2.90919 8.76973 2.91541 8.80384 2.93098L12.2955 4.36894C12.3203 4.37828 12.3451 4.38762 12.373 4.39384L14.5746 5.29646C14.6646 5.33381 14.7266 5.41162 14.7421 5.505C14.8568 6.26133 15.046 8.27199 14.3607 10.5285Z" fill="black"/>
</svg>
