<svg width="24" height="18" viewBox="0 0 24 18" fill="none" xmlns="http://www.w3.org/2000/svg">
<path d="M14.6953 0.407715H0V11.4292H14.6953V0.407715Z" fill="#FFC742"/>
<path d="M23.0203 10.3254L21.9621 9.53086L20.2746 5.85C20.0109 5.26992 19.4273 4.89727 18.791 4.89727H15.5109V0.407813C15.5109 0.182813 15.3281 0 15.1031 0H0.407813C0.182813 0 0 0.182813 0 0.407813V14.6953C0 15.3703 0.548437 15.9187 1.22344 15.9187H1.66641C1.85977 17.0754 2.86875 17.9613 4.08164 17.9613C5.29453 17.9613 6.3 17.0789 6.49688 15.9187H17.1773C17.3707 17.0754 18.3797 17.9613 19.5926 17.9613C20.8055 17.9613 21.8109 17.0789 22.0078 15.9187H22.4508C23.1258 15.9187 23.6742 15.3703 23.6742 14.6953V11.6332C23.6742 11.1199 23.4281 10.6313 23.0203 10.3254ZM20.9988 9.38672H17.1422V7.34414H20.0602L20.9988 9.38672ZM0.815625 0.815625H14.6918V11.0215H0.815625V0.815625ZM4.08164 17.1422C3.18164 17.1422 2.45039 16.4109 2.45039 15.5109C2.45039 14.6109 3.18164 13.8797 4.08164 13.8797C4.98164 13.8797 5.71289 14.6109 5.71289 15.5109C5.71289 16.4074 4.98164 17.1422 4.08164 17.1422ZM19.5926 17.1422C18.6926 17.1422 17.9613 16.4109 17.9613 15.5109C17.9613 14.6109 18.6926 13.8797 19.5926 13.8797C20.4926 13.8797 21.2238 14.6109 21.2238 15.5109C21.2238 16.4074 20.4926 17.1422 19.5926 17.1422ZM22.8586 14.6918C22.8586 14.9168 22.6758 15.0996 22.4508 15.0996H22.0078C21.8145 13.943 20.8055 13.057 19.5926 13.057C18.3797 13.057 17.3742 13.9395 17.1773 15.0996H6.49688C6.30352 13.943 5.29453 13.057 4.08164 13.057C2.86875 13.057 1.86328 13.9395 1.66641 15.0996H1.22344C0.998437 15.0996 0.815625 14.9168 0.815625 14.6918V11.8336H15.1031C15.3281 11.8336 15.5109 11.6508 15.5109 11.4258V5.71289H18.791C19.1109 5.71289 19.3992 5.89922 19.5328 6.1875L19.6875 6.52852H16.7344C16.5094 6.52852 16.3266 6.71133 16.3266 6.93633V9.79453C16.3266 10.0195 16.5094 10.2023 16.7344 10.2023H21.498L22.5316 10.9793C22.7355 11.134 22.8586 11.3766 22.8586 11.6332V14.6918Z" fill="black"/>
</svg>
